<?xml version="1.0" encoding="utf-8"?>
<!-- Generator: Adobe Illustrator 21.0.0, SVG Export Plug-In . SVG Version: 6.00 Build 0)  -->
<svg version="1.1" id="Layer_1" xmlns="http://www.w3.org/2000/svg" xmlns:xlink="http://www.w3.org/1999/xlink" x="0px" y="0px"
	 viewBox="0 0 378 512" style="enable-background:new 0 0 378 512;" xml:space="preserve">
<g>
	<path d="M338.5,462.6c0,5.5-4.3,9.9-9.8,9.9h-279c-5.5,0-10.1-4.5-10.1-9.9V253h298.9V462.6z M91.1,137.7c0-54.1,43.9-98,97.9-98
		c54,0,97.9,43.9,97.9,98v75.9H91.1V137.7z M358.4,213.5h-31.9v-75.9C326.5,61.8,264.8,0.1,189,0.1c-75.8,0-137.5,61.7-137.5,137.6
		v75.9H20c-10.9,0-20,8.7-20,19.6v229.4C0,489.8,22.4,512,49.7,512h279c27.3,0,49.3-22.2,49.3-49.4V233.1
		C378,222.2,369.3,213.5,358.4,213.5z"/>
</g>
<g>
	<path d="M189,422c10.9,0,19.8-8.9,19.8-19.8V331c0-10.9-8.8-19.8-19.8-19.8s-19.8,8.9-19.8,19.8v71.2
		C169.2,413.2,178.1,422,189,422z"/>
</g>
</svg>
